<svg width="312" height="134" viewBox="0 0 312 134" fill="none" xmlns="http://www.w3.org/2000/svg">
<g clip-path="url(#clip0_13365_218)">
<rect x="0.74353" y="0.0205536" width="310.513" height="133.077" rx="8.87179" fill="#221C3D"/>
<path d="M173.105 63.9287C166.496 76.7041 167.547 92.6648 174.208 105.402C180.868 118.139 192.617 127.767 205.742 133.631C218.866 139.495 233.336 141.825 247.696 142.429C256.213 142.783 264.772 142.548 273.183 141.181C282.811 139.61 292.431 136.425 299.939 130.195C305.172 125.851 309.171 120.213 312.68 114.391C320.524 101.373 326.192 87.1799 331.843 73.0589C334.62 66.1005 337.413 59.0954 338.989 51.7666C341.97 37.8329 340.334 22.809 333.64 10.2253C326.946 -2.35849 315.06 -12.2679 301.284 -15.8621C292.158 -18.2383 282.458 -17.8721 273.268 -15.7471C267.018 -14.303 260.977 -12.0677 255.293 -9.09537C241.44 -1.85599 230.53 9.71851 218.628 19.5257C213.398 23.8396 209.34 29.5502 204.013 33.9151C198.621 38.3396 192.911 42.3681 187.6 46.8906C181.881 51.7495 176.558 57.2259 173.105 63.9287Z" fill="#8162FF"/>
<path opacity="0.5" d="M173.105 63.9287C166.496 76.7041 167.547 92.6648 174.208 105.402C180.868 118.139 192.617 127.767 205.742 133.631C218.866 139.495 233.336 141.825 247.696 142.429C256.213 142.783 264.772 142.548 273.183 141.181C282.811 139.61 292.431 136.425 299.939 130.195C305.172 125.851 309.171 120.213 312.68 114.392C320.524 101.373 326.192 87.1799 331.843 73.0589C334.62 66.1005 337.413 59.0954 338.989 51.7666C341.97 37.8329 340.334 22.809 333.64 10.2253C326.946 -2.35849 315.06 -12.2679 301.284 -15.8621C292.158 -18.2383 282.458 -17.8721 273.268 -15.7471C267.018 -14.303 260.977 -12.0677 255.293 -9.09537C241.44 -1.85599 230.53 9.71851 218.628 19.5258C213.398 23.8396 209.34 29.5502 204.013 33.9151C198.621 38.3396 192.911 42.3681 187.6 46.8906C181.881 51.7495 176.558 57.2259 173.105 63.9287Z" fill="white"/>
<path d="M297.345 38.6249H339.168" stroke="#141518" stroke-width="0.425846" stroke-linecap="round" stroke-linejoin="round"/>
<path d="M262.98 -20.3164V13.5724" stroke="#141518" stroke-width="0.425846" stroke-linecap="round" stroke-linejoin="round"/>
<path d="M203.348 38.6249H178.228" stroke="#141518" stroke-width="0.425846" stroke-linecap="round" stroke-linejoin="round"/>
<path d="M298.678 20.9182L314.728 4.8681" stroke="#141518" stroke-width="0.425846" stroke-linecap="round" stroke-linejoin="round"/>
<path d="M308.166 5.26843L316.189 -2.75877" stroke="#141518" stroke-width="0.425846" stroke-linecap="round" stroke-linejoin="round"/>
<path d="M166.794 94.2277L182.844 78.1733" stroke="#141518" stroke-width="0.425846" stroke-linecap="round" stroke-linejoin="round"/>
<path d="M176.277 78.5736L184.305 70.5464" stroke="#141518" stroke-width="0.425846" stroke-linecap="round" stroke-linejoin="round"/>
<path d="M300.139 13.2914L305.249 8.1812" stroke="#141518" stroke-width="0.425846" stroke-linecap="round" stroke-linejoin="round"/>
<path d="M276.675 -2.76729L277.693 0.520241C277.751 0.730802 277.854 0.926416 277.994 1.0939C278.134 1.26139 278.309 1.39686 278.506 1.49117L281.27 2.71761L278.523 3.93127C278.326 4.02605 278.152 4.16166 278.012 4.32907C277.872 4.49649 277.769 4.69187 277.71 4.9022L276.692 8.18973L275.674 4.9022C275.616 4.69215 275.514 4.4969 275.374 4.32948C275.235 4.16205 275.061 4.0263 274.865 3.93127L272.097 2.71761L274.848 1.49969C275.045 1.40535 275.219 1.26982 275.358 1.10229C275.498 0.934762 275.6 0.73916 275.657 0.52876L276.675 -2.76729Z" fill="white"/>
<path d="M289.714 11.5667L290.698 14.654C290.756 14.8531 290.856 15.0374 290.991 15.1946C291.126 15.3518 291.293 15.4782 291.481 15.5654L294.143 16.7066L291.49 17.8521C291.302 17.9388 291.134 18.0651 290.999 18.2224C290.864 18.3796 290.764 18.5642 290.706 18.7635L289.723 21.8508L288.739 18.7635C288.681 18.5639 288.58 18.3792 288.444 18.222C288.308 18.0647 288.14 17.9386 287.951 17.8521L285.294 16.7066L287.951 15.5654C288.14 15.4782 288.308 15.3518 288.443 15.1947C288.579 15.0375 288.68 14.8532 288.739 14.654L289.714 11.5667Z" fill="white"/>
<path opacity="0.7" d="M295.71 -1.58342L296.034 -0.565648C296.053 -0.499854 296.087 -0.438937 296.132 -0.386848C296.176 -0.334759 296.231 -0.292664 296.294 -0.263297L297.171 0.111446L296.294 0.490449C296.231 0.519815 296.176 0.561911 296.132 0.614C296.087 0.666089 296.053 0.727009 296.034 0.792803L295.71 1.81057L295.387 0.792803C295.368 0.726651 295.335 0.665377 295.29 0.613188C295.245 0.560998 295.189 0.519126 295.127 0.490449L294.25 0.111446L295.127 -0.263297C295.189 -0.291974 295.245 -0.333843 295.29 -0.386033C295.335 -0.438222 295.368 -0.499496 295.387 -0.565648L295.71 -1.58342Z" fill="white"/>
<path d="M300.139 79.8469L301.123 82.9343C301.181 83.1338 301.281 83.3185 301.417 83.4757C301.553 83.633 301.721 83.7591 301.911 83.8456L304.568 84.9911L301.911 86.1324C301.722 86.2195 301.554 86.3459 301.418 86.503C301.282 86.6602 301.182 86.8445 301.123 87.0437L300.139 90.1311L299.155 87.0352C299.097 86.8365 298.996 86.6525 298.861 86.4954C298.726 86.3384 298.559 86.2117 298.372 86.1238L295.71 84.9826L298.372 83.837C298.56 83.7496 298.727 83.6231 298.862 83.466C298.997 83.3088 299.097 83.1247 299.155 82.9257L300.139 79.8469Z" fill="white"/>
<path d="M251.886 1.81056L252.627 4.39119C252.667 4.55238 252.741 4.7034 252.843 4.83464C252.945 4.96588 253.073 5.07446 253.219 5.15345L255.216 6.11161L253.219 7.0655C253.073 7.1445 252.945 7.25308 252.843 7.38431C252.741 7.51555 252.667 7.66658 252.627 7.82777L251.886 10.4084L251.149 7.82777C251.109 7.66658 251.036 7.51555 250.934 7.38431C250.832 7.25308 250.704 7.1445 250.558 7.0655L248.56 6.12438L250.558 5.16623C250.704 5.08723 250.832 4.97865 250.934 4.84742C251.036 4.71618 251.109 4.56515 251.149 4.40396L251.886 1.81056Z" fill="white"/>
<path d="M223.989 89.1643C223.989 89.1643 216.635 80.1406 216.115 77.1511L210.443 80.1321L189.768 79.9702C188.727 78.2083 187.776 76.3947 186.919 74.5364C186.102 72.5563 185.765 69.1154 190.403 68.1828C190.403 68.1828 193.132 63.3026 194.116 59.3934C195.1 55.4841 193.588 51.1277 195.04 48.2277C196.492 45.3276 197.101 44.5569 199.541 43.1175C201.981 41.6781 207.3 38.0074 209.706 36.4913C212.199 34.9013 214.899 33.6618 217.729 32.8078C220.37 32.0711 240.823 20.8841 240.823 20.8841L241.743 22.4043L241.585 20.8841L244.528 22.8856C244.528 22.8856 246.712 23.2646 250.843 21.7996C254.974 20.3347 263.274 15.5993 268.831 18.1289C274.388 20.6584 282.726 29.4777 285.256 32.1009C287.785 34.7241 293.142 40.111 294.471 44.0842C295.8 48.0573 298.593 50.4335 300.007 52.0007C301.421 53.5678 308.17 58.9121 303.601 65.7299C299.032 72.5477 281.968 67.2971 281.968 67.2971C281.968 67.2971 282.743 63.2643 284.37 60.6411C283.556 58.8578 282.523 57.1828 281.295 55.6544C279.238 53.0993 272.131 45.0594 268.052 43.1431C263.972 41.2267 247.751 79.0972 247.751 79.0972L244.447 77.8836L243.885 82.9937C243.885 82.9937 226.983 87.0606 223.989 89.1643Z" fill="#8162FF"/>
<path opacity="0.2" d="M264.291 27.638C269.278 27.0333 274.303 29.3414 277.918 32.8121C281.534 36.2827 283.91 40.8733 285.792 45.5321C287.134 48.8614 288.255 52.2755 289.148 55.7524C292.431 54.8368 296.366 54.5813 299.666 55.416C297.392 56.0505 295.067 56.2166 292.465 57.2471C294.982 57.2684 297.541 57.6346 299.79 58.7674C302.038 59.9001 303.937 61.8846 304.551 64.3247C304.606 64.5589 304.525 64.9251 304.295 64.8527L301.033 69.4391L281.972 68.6768C281.972 68.6768 281.402 65.2701 284.374 60.6965C282.95 57.7624 281.091 55.0604 278.859 52.682C274.984 48.4449 268.826 43.9011 268.826 43.9011L264.291 27.638Z" fill="black"/>
<path opacity="0.2" d="M188.043 77.1512C188.043 77.1512 184.637 70.6826 192.885 68.6769C192.885 68.6769 195.287 66.7137 196.036 63.9925C196.786 61.2714 196.888 46.3157 207.96 44.3355C219.032 42.3553 224.342 39.9961 227.042 32.6247C229.742 25.2533 245.545 31.2492 245.545 31.2492L252.487 67.0544L243.885 83.0151L223.989 89.1643C223.989 89.1643 216.324 79.3315 214.356 73.0844C212.389 66.8372 197.991 77.6196 197.991 77.6196L190.786 80.707L188.043 77.1512Z" fill="black"/>
<path d="M276.023 81.0732L270.854 80.839L269.346 77.3173L268.643 78.0284L267.447 73.1355C267.447 73.1355 274.341 71.3384 279.324 67.7698C285.264 64.363 295.795 59.585 303.077 63.8307C303.077 63.8307 302.877 66.7861 302.651 68.6257C302.426 70.4654 301.821 73.3101 296.536 76.1462L278.37 80.1108" fill="white"/>
<path d="M231.957 8.88802L225.079 3.39886L217.325 10.3402L207.956 15.6675L210.311 26.4073C210.311 26.4073 215.447 32.7439 217.729 35.2479C220.012 37.7519 219.705 37.9137 222.554 39.0805C225.403 40.2473 232.153 40.703 232.153 40.703C233.345 40.3001 234.487 39.7644 235.559 39.1061C237.331 38.0202 237.833 34.541 237.833 34.541L240.495 32.1563L240.861 27.8765C241.596 25.9686 241.871 23.9147 241.666 21.8806L237.77 16.6214C237.77 16.6214 239.047 16.7193 239.435 15.6632C239.822 14.6071 240.082 12.001 240.082 12.001C240.082 12.001 240.124 10.7234 238.242 8.13428C236.36 5.54513 236.198 4.6253 233.775 5.25981C231.352 5.89432 231.957 8.88802 231.957 8.88802Z" fill="white"/>
<path d="M243.885 75.3456C243.382 74.3534 238.115 67.4674 236.22 65.8748C236.22 65.8748 225.876 61.5482 223.593 62.1742L216.912 64.2012C216.912 64.2012 209.016 66.5306 207.117 67.5228C205.218 68.515 202.058 69.2858 198.485 70.1247C194.912 70.9636 190.628 71.5087 189.998 74.4811C189.368 77.4535 188.942 82.223 189.866 85.2763C189.866 85.2763 189.828 88.3211 190.352 89.1473C190.875 89.9734 195.036 90.378 198.775 88.5298C202.514 86.6816 207.207 83.6751 210.439 80.1534L219.049 76.2101L224.517 80.69L227.63 81.3202L230.398 79.455L232.297 80.69H233.941L234.393 78.3478L230.398 73.293L238.626 78.3478L240.274 77.1512L239.741 74.0851L242.722 77.1512C242.722 77.1512 244.387 76.3421 243.885 75.3456ZM233.848 69.6648L236.015 70.2823L238.191 72.9694L233.848 69.6648Z" fill="white"/>
<path d="M229.342 25.2447C229.874 25.9261 230.032 26.7011 229.687 26.9481C229.342 27.1951 228.635 26.88 228.099 26.1944C227.562 25.5088 227.409 24.738 227.754 24.491C228.099 24.244 228.806 24.5591 229.342 25.2447Z" fill="#141518"/>
<path d="M220.412 30.2954C220.944 30.981 221.102 31.7518 220.757 32.02C220.412 32.2883 219.705 31.9476 219.169 31.262C218.632 30.5764 218.479 29.8056 218.824 29.5374C219.169 29.2691 219.875 29.6097 220.412 30.2954Z" fill="#141518"/>
<path d="M231.957 33.7149C231.957 33.7149 234.086 32.3011 233.234 28.7751" stroke="#141518" stroke-width="0.425846" stroke-linecap="round" stroke-linejoin="round"/>
<path d="M224.76 23.1964C225.197 22.3691 225.854 21.6778 226.657 21.1979C227.461 20.7181 228.38 20.4681 229.316 20.4753" stroke="#141518" stroke-width="0.851692" stroke-linecap="round" stroke-linejoin="round"/>
<path d="M219.339 26.9183C218.58 27.2081 217.895 27.6646 217.336 28.2542C216.776 28.8438 216.356 29.5515 216.107 30.3251" stroke="#141518" stroke-width="0.851692" stroke-linecap="round" stroke-linejoin="round"/>
<path d="M221.225 28.3066C223.258 29.6848 224.809 31.6634 225.663 33.9661C226.659 34.2813 227.701 34.4253 228.746 34.3919L228.976 31.7304" stroke="#141518" stroke-width="0.425846" stroke-linecap="round" stroke-linejoin="round"/>
<path d="M206.078 16.7066C206.078 16.7066 206.078 20.965 208.258 23.7501C210.277 26.3477 214.442 31.1087 215.046 31.8028C215.095 31.8566 215.141 31.9135 215.182 31.9731C215.668 32.6417 218.823 36.9257 220.608 38.2629C222.205 39.4595 229.367 40.3921 231.846 40.6689C232.391 40.7313 232.942 40.6163 233.417 40.341L235.546 39.089C236.058 38.7909 236.449 38.322 236.649 37.7646L238.864 31.675C238.965 31.4024 239.016 31.1141 239.017 30.8234V27.1228C239.018 26.8156 238.961 26.5109 238.851 26.2242L236.189 19.2318" stroke="#141518" stroke-width="0.425846" stroke-linecap="round" stroke-linejoin="round"/>
<path d="M237.833 16.7066C237.833 16.7066 238.647 18.6143 241.666 21.8891" stroke="#141518" stroke-width="0.425846" stroke-linecap="round" stroke-linejoin="round"/>
<path d="M268.435 72.8884C268.435 72.8884 274.166 70.8955 278.199 68.4043C282.232 65.9131 295.399 59.5126 303.324 63.6603L303.184 64.4141C302.947 65.7489 302.845 67.1044 302.881 68.4596C302.928 70.8827 301.834 72.9693 296.762 75.9801C290.425 76.7721 276.283 80.9241 276.283 80.9241" stroke="#141518" stroke-width="0.425846" stroke-linecap="round" stroke-linejoin="round"/>
<path d="M219.194 76.5209C217.291 76.8701 214.425 79.1739 213.492 80.873C212.559 82.5722 212.01 84.4587 211.073 86.1535C209.944 88.1816 208.293 89.8709 206.291 91.0465C203.685 92.571 200.517 93.2056 198.34 95.305C197.237 96.42 196.403 97.7734 195.905 99.2611C194.618 102.817 194.728 106.73 196.214 110.208C197.7 113.686 200.451 116.47 203.911 117.998" stroke="#141518" stroke-width="0.851692" stroke-linecap="round" stroke-linejoin="round"/>
<path d="M220.399 63.3367C220.399 63.3367 210.06 65.6576 206.078 68.0806C202.096 70.5037 191.318 69.6563 189.862 74.8601C188.405 80.0639 189.862 85.2763 189.862 85.2763C189.862 85.2763 189.5 88.3126 190.347 89.1643C191.195 90.016 199.916 91.3489 209.966 80.4515C209.966 80.4515 215.902 76.8445 218.93 76.589" stroke="#141518" stroke-width="0.425846" stroke-linecap="round" stroke-linejoin="round"/>
<path d="M218.93 64.5632C218.93 64.5632 221.702 61.5439 224.726 62.2977C227.749 63.0514 234.801 64.8528 236.224 65.8748C237.646 66.8968 243.706 74.1362 243.889 75.3456C244.072 76.555 242.735 77.1512 242.735 77.1512L236.015 70.2823L231.961 69.0048" stroke="#141518" stroke-width="0.425846" stroke-linecap="round" stroke-linejoin="round"/>
<path d="M233.285 69.4178L239.737 74.1021L240.269 77.164L238.621 78.3606C238.621 78.3606 231.927 73.8977 229.406 72.8246" stroke="#141518" stroke-width="0.425846" stroke-linecap="round" stroke-linejoin="round"/>
<path d="M229.747 72.9693L234.388 78.3478L233.937 80.6899H232.293L224.513 75.6309" stroke="#141518" stroke-width="0.425846" stroke-linecap="round" stroke-linejoin="round"/>
<path d="M213.134 73.8807C213.615 75.2519 216.073 75.4478 218.049 75.8098C220.024 76.1717 224.521 80.69 224.521 80.69L227.639 81.3202L230.402 79.455" stroke="#141518" stroke-width="0.425846" stroke-linecap="round" stroke-linejoin="round"/>
<path d="M217.721 63.9883C217.721 63.9883 215.481 54.0448 210.992 48.5471" stroke="#141518" stroke-width="0.425846" stroke-linecap="round" stroke-linejoin="round"/>
<path d="M218.93 63.4389C218.93 63.4389 221.204 58.4267 217.721 51.3108" stroke="#141518" stroke-width="0.425846" stroke-linecap="round" stroke-linejoin="round"/>
<path d="M216.115 33.2081C211.465 34.4005 205.469 40.0983 198.655 43.6243C193.618 46.2262 194.661 52.5884 194.397 57.3749C194.133 62.1614 190.398 68.2041 190.398 68.2041C190.398 68.2041 187.025 68.9536 186.527 71.662C186.029 74.3704 189.231 79.1952 189.231 79.1952" stroke="#141518" stroke-width="0.425846" stroke-linecap="round" stroke-linejoin="round"/>
<path d="M216.115 77.6026C216.115 77.6026 220.523 86.7242 223.998 88.7853" stroke="#141518" stroke-width="0.425846" stroke-linecap="round" stroke-linejoin="round"/>
<path d="M204.809 68.6769C204.809 68.6769 199.669 66.339 195.015 67.2716" stroke="#141518" stroke-width="0.425846" stroke-linecap="round" stroke-linejoin="round"/>
<path d="M206.078 68.0807C204.698 66.5135 199.933 65.3169 199.933 65.3169" stroke="#141518" stroke-width="0.425846" stroke-linecap="round" stroke-linejoin="round"/>
<path d="M280.955 28.1831C280.955 28.1831 292.027 37.3899 295.008 45.4384C297.345 51.7665 310.236 57.6815 303.12 66.3815" stroke="#141518" stroke-width="0.425846" stroke-linecap="round" stroke-linejoin="round"/>
<path d="M281.968 66.3815C282.23 64.5887 282.862 62.8701 283.825 61.3352C285.486 58.5119 294.011 57.9285 298.691 59.4147" stroke="#141518" stroke-width="0.425846" stroke-linecap="round" stroke-linejoin="round"/>
<path d="M237.135 44.6591C237.135 44.895 237.065 45.1255 236.934 45.3216C236.803 45.5177 236.617 45.6705 236.399 45.7607C236.181 45.851 235.942 45.8746 235.71 45.8286C235.479 45.7826 235.266 45.669 235.1 45.5023C234.933 45.3355 234.819 45.1231 234.773 44.8918C234.727 44.6605 234.751 44.4207 234.841 44.2028C234.932 43.985 235.084 43.7987 235.28 43.6677C235.477 43.5367 235.707 43.4668 235.943 43.4668C236.259 43.4668 236.562 43.5924 236.786 43.816C237.01 44.0396 237.135 44.3429 237.135 44.6591Z" fill="#141518"/>
<path d="M238.328 52.0092C238.328 52.2451 238.258 52.4756 238.127 52.6717C237.996 52.8678 237.809 53.0206 237.592 53.1109C237.374 53.2011 237.134 53.2247 236.903 53.1787C236.671 53.1327 236.459 53.0191 236.292 52.8524C236.125 52.6856 236.012 52.4732 235.966 52.2419C235.92 52.0106 235.943 51.7708 236.034 51.5529C236.124 51.3351 236.277 51.1489 236.473 51.0178C236.669 50.8868 236.899 50.8169 237.135 50.8169C237.451 50.8169 237.755 50.9425 237.978 51.1661C238.202 51.3897 238.328 51.693 238.328 52.0092Z" fill="#141518"/>
<path d="M232.357 13.1848L232.144 7.99803C232.123 7.55669 232.233 7.11906 232.461 6.74019C232.688 6.36132 233.022 6.05814 233.422 5.8688L234.273 5.47276C234.77 5.23953 235.336 5.19744 235.862 5.35452C236.389 5.5116 236.839 5.85685 237.126 6.32445L239.754 10.6085C240.007 11.0247 240.119 11.5116 240.073 11.9967L239.814 14.6072C239.761 15.1296 239.527 15.6172 239.152 15.9845C238.777 16.3519 238.284 16.5758 237.761 16.6172L236.794 16.6938" stroke="#141518" stroke-width="0.425846" stroke-linecap="round" stroke-linejoin="round"/>
<path d="M240.861 26.9184C242.203 24.6955 241.577 20.9182 241.577 20.9182L244.924 23.1965C244.924 23.1965 245.26 24.2271 244.924 26.4755" stroke="#141518" stroke-width="0.425846" stroke-linecap="round" stroke-linejoin="round"/>
<path d="M245.192 23.1582C248.686 22.5857 252.1 21.6008 255.361 20.2241C260.361 18.0949 264.168 15.7442 269.521 18.5207C272.412 20.0154 274.899 22.1787 277.68 23.8481" stroke="#141518" stroke-width="0.425846" stroke-linecap="round" stroke-linejoin="round"/>
<path d="M218.692 19.4788C218.692 19.4788 208.242 18.7379 204.669 15.2928C201.096 11.8477 201.287 1.77215 201.287 1.77215C201.562 2.95812 201.911 4.12579 202.331 5.26834C202.424 5.51534 202.527 5.75807 202.629 5.98377C203.395 7.64031 203.395 1.77215 203.395 1.77215L204.034 4.06746C204.034 4.06746 207.867 -2.69072 210.537 -4.47927C213.207 -6.26783 224.568 -5.88031 230.058 -3.71275L235.415 5.2726C235.415 5.2726 232.817 5.2726 232.34 7.00154C232.187 9.0456 232.34 12.2437 232.34 12.2437C229.332 11.037 226.793 8.89254 225.101 6.12856C225.101 6.12856 222.712 14.6412 218.692 19.4788Z" fill="#141518"/>
<path d="M208.063 16.7066C208.063 16.7066 211.895 22.4385 210.848 26.9269C210.848 26.9269 207.948 22.7111 207.143 21.8168C205.725 20.2497 204.86 13.5767 204.86 13.5767L208.063 16.7066Z" fill="#141518"/>
<path d="M285.575 59.6362C286.908 58.2734 288.722 57.5069 290.485 56.7915C292.031 56.157 293.611 55.514 295.28 55.3947" stroke="#141518" stroke-width="0.425846" stroke-linecap="round" stroke-linejoin="round"/>
<path d="M237.833 67.5356L244.839 68.6173L245.477 78.5991L239.477 77.9305L240.269 77.1512L239.805 74.4726L242.731 77.1512C243.077 76.994 243.37 76.7398 243.575 76.4193C243.78 76.0989 243.888 75.7259 243.885 75.3456C243.966 73.9233 237.833 67.5356 237.833 67.5356Z" fill="#141518"/>
<path d="M238.191 72.9694L236.011 70.2823L233.847 69.6648L238.191 72.9694Z" fill="#141518"/>
<path d="M237.199 77.6026L232.813 76.5209L230.394 73.293L237.199 77.6026Z" fill="#141518"/>
<path d="M239.175 58.5588C239.099 59.7548 239.485 60.9344 240.252 61.8548C241.011 62.5972 241.968 63.1057 243.008 63.3197C243.236 63.4072 243.479 63.4485 243.723 63.4412C243.967 63.4339 244.207 63.3781 244.43 63.2771C244.907 62.9876 245.047 62.3701 245.145 61.8207C245.571 59.4062 245.933 56.7574 244.719 54.6325C244.268 53.8489 243.25 50.7062 242.369 50.5103C239.788 49.9439 239.217 56.8 239.175 58.5588Z" fill="#141518"/>
<path d="M271.803 33.3785L273.66 41.6782C273.985 43.5816 273.807 45.5368 273.145 47.3505L273.536 50.3825L274.337 54.9774C274.337 54.9774 273.17 62.5404 270.709 65.9685C268.247 69.3966 267.975 68.0977 267.975 68.0977L268.912 77.8411C265.673 79.7944 261.986 80.8825 258.206 81.0009C252.18 81.0775 245.477 78.5778 245.477 78.5778C245.446 75.2414 245.233 71.9092 244.839 68.596C244.221 64.3332 243.45 59.7809 243.45 59.7809L241.091 56.8L239.192 54.2449L237.833 49.8587L238.783 46.9715L239.273 46.4307C239.846 46.1318 240.452 45.9017 241.078 45.7451C241.819 45.613 244.911 48.5471 244.911 48.5471L245.26 40.9245L246.001 32.8334L260.906 28.1789L268.405 30.5296L271.803 33.3785Z" fill="white"/>
<path d="M272.429 35.7718C272.429 35.7718 273.958 42.4405 273.851 43.3135C273.745 44.1865 273.145 48.232 273.145 48.232L274.294 54.5601C274.363 54.9361 274.35 55.3223 274.256 55.6929C273.758 57.673 271.969 64.3248 269.661 67.8337C266.927 71.99 252.751 69.9885 249.8 67.8039L246.9 58.414" stroke="#141518" stroke-width="0.425846" stroke-linecap="round" stroke-linejoin="round"/>
<path d="M260.459 58.8015C260.459 58.8015 262.541 61.7824 265.663 61.2799" stroke="#141518" stroke-width="0.425846" stroke-linecap="round" stroke-linejoin="round"/>
<path d="M243.45 59.7809C243.45 59.7809 245.695 71.0403 245.477 78.6033C245.477 78.6033 251.644 80.954 257.576 81.0306C263.508 81.1073 268.92 77.8624 268.92 77.8624C268.456 74.907 268.226 68.7918 268.226 68.7918" stroke="#141518" stroke-width="0.425846" stroke-linecap="round" stroke-linejoin="round"/>
<path d="M245.282 49.2583C245.661 51.1533 246.559 52.8482 246.921 54.7389C246.99 55.2907 247.174 55.8218 247.462 56.2975C247.964 57.0087 249.659 56.8043 250.473 56.4977C250.532 56.4977 249.83 51.873 249.813 51.264C249.731 49.4771 250.002 47.6917 250.609 46.0091C251.188 44.5271 251.746 43.1048 251.593 41.4823C251.427 39.681 250.652 37.9819 249.859 36.3722C251.989 37.6618 254.444 38.3108 256.933 38.2416C260.829 38.0245 258.662 34.2387 258.662 34.2387C258.662 34.2387 269.806 37.4836 276.19 34.7795C282.573 32.0754 283.331 26.7736 281.726 24.2824C280.12 21.7912 270.053 25.0447 270.717 24.589C271.569 24.0141 273.038 22.4598 272.646 21.327C272.577 21.1464 272.467 20.9844 272.324 20.8536C272.181 20.7228 272.011 20.6269 271.825 20.5733C270.24 20.0793 267.817 21.4803 266.429 22.1106C264.577 22.9623 262.754 23.8864 260.782 24.4016C257.21 25.3428 253.492 25.313 249.834 25.4364C248.105 25.4961 246.389 25.6238 244.673 25.7856C243.186 25.9219 241.53 26.0624 240.363 27.1058C240.326 27.1366 240.292 27.1708 240.261 27.208C238.685 29.0348 241.202 48.2831 241.202 48.2831L245.282 49.2583Z" fill="#141518"/>
<path d="M242.024 31.1513C242.024 31.1513 239.396 30.0399 237.676 31.6581C235.955 33.2763 238.89 48.5471 238.89 48.5471L242.471 48.5003L242.024 31.1513Z" fill="#141518"/>
<path d="M198.072 141.062H316.794L314.09 132.907C314.09 132.907 301.11 96.8892 293.193 85.5148L289.254 83.0066L285.894 81.5161L270.858 80.8561L269.614 77.1512C269.614 77.1512 263.554 81.0733 257.58 81.0264C251.605 80.9796 244.451 77.9177 244.451 77.9177L243.889 83.0279C243.889 83.0279 229.44 87.0223 226.855 87.6441C224.27 88.2658 211.005 94.7685 211.005 94.7685C211.005 94.7685 210.792 95.8033 210.439 97.8473C210.085 99.8914 204.745 116.751 204.745 116.751L196.952 141.062H198.072Z" fill="#8162FF"/>
<path d="M264.998 46.4307C265.109 47.1801 265.241 47.9282 265.394 48.6749C265.573 49.5266 265.82 50.4592 266.51 51.0043C267.076 51.4301 267.868 51.5664 268.362 52.0902C268.612 52.397 268.769 52.7679 268.818 53.1603C268.866 53.5527 268.802 53.9508 268.635 54.3088C268.293 55.0218 267.818 55.6622 267.234 56.1953" stroke="#141518" stroke-width="0.425846" stroke-linecap="round" stroke-linejoin="round"/>
<path d="M270.398 48.5471C270.398 49.3988 270.044 50.1185 269.61 50.1185C269.176 50.1185 268.822 49.4158 268.822 48.5471C268.822 47.6784 269.176 46.9715 269.61 46.9715C270.044 46.9715 270.398 47.6784 270.398 48.5471Z" fill="#141518"/>
<path d="M260.829 48.9346C260.829 49.8076 260.476 50.5102 260.041 50.5102C259.607 50.5102 259.253 49.8076 259.253 48.9346C259.253 48.0616 259.607 47.3632 260.041 47.3632C260.476 47.3632 260.829 48.0659 260.829 48.9346Z" fill="#141518"/>
<path d="M261.396 44.5442C261.396 44.5442 258.909 42.5683 255.911 45.4385" stroke="#141518" stroke-width="0.851692" stroke-linecap="round" stroke-linejoin="round"/>
<path d="M267.711 44.2077C267.711 44.2077 270.487 42.6576 272.395 44.6123" stroke="#141518" stroke-width="0.851692" stroke-linecap="round" stroke-linejoin="round"/>
<path d="M273.145 59.6276C273.145 59.6276 271.748 67.2929 267.711 67.5356C263.674 67.7783 264.53 63.9883 264.53 63.9883L261.396 63.4389C261.396 63.4389 260.582 67.1779 257.853 67.1779C255.123 67.1779 250.788 60.8753 249.889 53.3379L244.924 48.5471C244.924 48.5471 246.904 59.6958 248.25 63.4517L249.8 67.7954C249.8 67.7954 255.911 71.662 262.107 72.9822C268.35 71.6748 268.963 69.0175 269.653 67.8465C270.343 66.6754 273.145 59.6276 273.145 59.6276Z" fill="#141518"/>
<path d="M242.203 30.5338C242.236 30.0716 242.373 29.6228 242.604 29.221C242.835 28.8191 243.153 28.4745 243.536 28.2129C244.302 27.694 245.175 27.3522 246.091 27.2122C249.255 26.6075 252.508 27.1867 255.715 27.5401C258.921 27.8936 262.315 27.9958 265.198 26.5521C266.332 25.9758 267.34 25.1815 268.166 24.2147C268.992 23.248 269.618 22.1277 270.01 20.9182" stroke="white" stroke-width="0.425846" stroke-linecap="round" stroke-linejoin="round"/>
<path d="M246.372 31.4835C246.839 31.1011 247.375 30.812 247.951 30.6318C250.264 29.844 252.815 30.2358 255.191 30.8788C257.567 31.5218 259.875 32.4076 262.311 32.5822C263.89 32.6632 265.474 32.5603 267.029 32.2756C269.687 31.8497 272.361 31.2195 274.695 29.8695C277.028 28.5196 278.987 26.3648 279.613 23.7501" stroke="white" stroke-width="0.425846" stroke-linecap="round" stroke-linejoin="round"/>
<path d="M243.885 32.8589C243.492 32.8263 243.098 32.9166 242.759 33.1172C242.419 33.3178 242.151 33.6189 241.99 33.9789C241.675 34.7031 241.529 35.4895 241.564 36.2785C241.505 39.9972 241.862 43.7109 242.628 47.3505" stroke="white" stroke-width="0.425846" stroke-linecap="round" stroke-linejoin="round"/>
<path d="M247.108 59.0101C247.108 59.0101 245.554 60.3473 244.472 60.2877C243.553 60.2281 240.214 55.6587 239.256 54.3258C239.09 54.0887 238.962 53.8272 238.877 53.5508L237.978 50.523C237.812 49.974 237.833 49.3853 238.038 48.8494L238.528 47.5719C238.65 47.2448 238.838 46.9458 239.078 46.6927C239.319 46.4395 239.608 46.2375 239.929 46.0985C240.41 45.8902 240.942 45.8311 241.457 45.9291C241.972 46.0271 242.445 46.2775 242.816 46.6478L245.252 49.0794" fill="white"/>
<path d="M247.108 59.0101C247.108 59.0101 245.554 60.3473 244.472 60.2877C243.553 60.2281 240.214 55.6587 239.256 54.3258C239.09 54.0887 238.962 53.8272 238.877 53.5508L237.978 50.523C237.812 49.974 237.833 49.3853 238.038 48.8494L238.528 47.5719C238.65 47.2448 238.838 46.9458 239.078 46.6927C239.319 46.4395 239.608 46.2375 239.929 46.0985C240.41 45.8902 240.942 45.8311 241.457 45.9291C241.972 46.0271 242.445 46.2775 242.816 46.6478L245.252 49.0794" stroke="#141518" stroke-width="0.425846" stroke-linecap="round" stroke-linejoin="round"/>
<path d="M270.713 81.7248L269.61 77.1512C269.61 77.1512 262.822 81.3671 258.206 81.0222C253.59 80.6772 246.367 79.0718 244.447 77.9177L243.885 83.0279C243.885 83.0279 249.847 87.8314 257.422 87.6355C264.998 87.4397 270.713 81.7248 270.713 81.7248Z" stroke="#141518" stroke-width="0.425846" stroke-linecap="round" stroke-linejoin="round"/>
<path d="M284.37 60.6752C280.244 52.4607 273.341 47.5081 273.341 47.5081" stroke="#141518" stroke-width="0.425846" stroke-linecap="round" stroke-linejoin="round"/>
<path d="M243.885 83.0066L228.235 87.2012C227.185 87.4814 226.157 87.8402 225.16 88.2743C221.37 89.9266 211.674 94.1808 210.992 94.7685C210.876 94.8779 210.783 95.0098 210.718 95.1561C210.654 95.3024 210.62 95.4603 210.618 95.6202C210.554 97.5413 210.244 99.4463 209.694 101.288L196.918 141.054" stroke="#141518" stroke-width="0.425846" stroke-linecap="round" stroke-linejoin="round"/>
<path d="M316.794 141.062C306.182 108.106 297.452 92.1452 294.254 86.9031C293.459 85.5989 292.314 84.5439 290.949 83.8583L287.457 82.108C286.422 81.593 285.29 81.3028 284.136 81.2563L270.713 80.6985" stroke="#141518" stroke-width="0.425846" stroke-linecap="round" stroke-linejoin="round"/>
<path d="M241.415 95.914C240.579 97.3956 239.83 98.9241 239.17 100.492" stroke="#141518" stroke-width="0.425846" stroke-linecap="round" stroke-linejoin="round"/>
<path d="M248.207 85.5702C246.077 88.4092 244.098 91.3588 242.279 94.4065" stroke="#141518" stroke-width="0.425846" stroke-linecap="round" stroke-linejoin="round"/>
<path d="M250.106 86.3495C250.106 86.3495 247.896 92.5626 247.125 97.8473" stroke="#141518" stroke-width="0.425846" stroke-linecap="round" stroke-linejoin="round"/>
<path d="M271.731 93.031C272.296 94.1325 272.769 95.2792 273.145 96.459" stroke="#141518" stroke-width="0.425846" stroke-linecap="round" stroke-linejoin="round"/>
<path d="M266.237 84.991C267.912 86.9138 269.409 88.9832 270.713 91.1743" stroke="#141518" stroke-width="0.425846" stroke-linecap="round" stroke-linejoin="round"/>
<path d="M263.384 86.3495C263.384 86.3495 265.658 92.9799 265.65 96.4591" stroke="#141518" stroke-width="0.425846" stroke-linecap="round" stroke-linejoin="round"/>
<path opacity="0.3" d="M310.321 141.066H196.952L204.758 116.751C204.758 116.751 210.098 99.8914 210.447 97.8516C210.796 95.8118 211.014 94.7685 211.014 94.7685C211.014 94.7685 224.287 88.2445 226.876 87.6185C229.466 86.9925 243.91 83.0109 243.91 83.0109L244.472 77.9007C244.472 77.9007 251.631 80.9625 257.605 81.0094C261.6 81.0435 265.641 79.306 267.868 78.1349L268.243 81.5715C266.778 82.9214 263.163 86.0046 259.079 87.5972C259.424 87.5206 264.751 86.2771 268.447 83.4026V83.573C268.447 83.573 285.72 84.9698 288.271 86.9797C293.755 91.4043 306.612 131.072 310.321 141.066Z" fill="black"/>
<path d="M326.546 146.432C324.732 144.912 323.101 143.928 322.002 141.718C319.992 137.668 319.319 132.963 318.838 128.517C317.518 116.248 315.474 124.786 315.474 124.786C315.568 127.584 315.426 130.385 315.048 133.159C314.345 138.631 312.851 143.805 307.515 146.36C307.379 146.419 307.263 146.515 307.18 146.639C307.098 146.762 307.053 146.906 307.051 147.054C307.051 148.331 311.492 149.341 316.973 149.341C322.453 149.341 326.895 148.319 326.895 147.054C326.887 146.931 326.852 146.811 326.791 146.703C326.731 146.596 326.647 146.503 326.546 146.432Z" fill="#8162FF" stroke="#141518" stroke-width="0.425846" stroke-linecap="round" stroke-linejoin="round"/>
<path d="M328.713 125.016C326.584 134.756 318.493 141.254 310.615 139.534C307.975 138.939 305.599 137.504 303.844 135.445C300.36 131.455 298.81 125.225 300.216 118.803C302.345 109.068 310.436 102.57 318.31 104.286C321.717 105.031 324.553 107.212 326.465 110.248C328.964 114.166 329.914 119.523 328.713 125.016Z" stroke="#141518" stroke-width="0.425846" stroke-linecap="round" stroke-linejoin="round"/>
<path d="M331.916 125.544C329.42 136.94 319.885 144.541 310.623 142.531C307.521 141.837 304.726 140.158 302.656 137.745C298.559 133.082 296.736 125.791 298.397 118.275C300.893 106.884 310.423 99.2783 319.69 101.288C323.718 102.161 327.031 104.695 329.28 108.251C332.197 112.85 333.329 119.118 331.916 125.544Z" fill="#8162FF" stroke="#141518" stroke-width="0.425846" stroke-linecap="round" stroke-linejoin="round"/>
<path opacity="0.5" d="M310.078 107.007C310.078 107.007 303.018 112.501 301.591 120.677C300.164 128.853 302.153 135.871 308.238 138.767C314.324 141.663 320.341 138.835 324.604 133.789C328.866 128.743 330.14 120.379 328.338 114.349C326.286 107.476 317.697 102.319 310.078 107.007Z" fill="white"/>
<path d="M328.713 125.016C326.584 134.756 318.493 141.254 310.615 139.534C307.975 138.939 305.6 137.504 303.844 135.445C301.357 131.515 300.394 126.162 301.595 120.664C303.725 110.929 311.816 104.431 319.694 106.147C322.334 106.743 324.71 108.179 326.465 110.24C328.964 114.166 329.914 119.523 328.713 125.016Z" stroke="#141518" stroke-width="0.425846" stroke-linecap="round" stroke-linejoin="round"/>
<path d="M303.022 134.334C303.022 134.334 299.615 128.07 301.804 119.774C303.993 111.479 310.287 106.841 313.728 106.356C317.169 105.87 323.096 105.649 327.287 111.138C327.287 111.138 323.773 103.784 315.167 104.026C306.561 104.269 302.72 111.734 300.578 117.347C298.436 122.96 300.859 131.285 303.022 134.334Z" fill="#141518"/>
<path d="M308.239 119.953L314.324 113.868" stroke="#141518" stroke-width="0.425846" stroke-linecap="round" stroke-linejoin="round"/>
<path d="M309.069 126.826L315.15 120.745" stroke="#141518" stroke-width="0.425846" stroke-linecap="round" stroke-linejoin="round"/>
<path d="M309.069 122.219L320.46 110.823" stroke="#141518" stroke-width="0.425846" stroke-linecap="round" stroke-linejoin="round"/>
<path d="M26.3369 56.5511C26.0246 56.5511 25.7709 56.4795 25.5757 56.3364C25.3935 56.1932 25.2829 56.0045 25.2439 55.7703C25.2049 55.5231 25.2504 55.2499 25.3805 54.9506L30.5333 43.5326C30.7024 43.1552 30.9041 42.8885 31.1383 42.7323C31.3855 42.5632 31.6653 42.4786 31.9776 42.4786C32.2769 42.4786 32.5436 42.5632 32.7778 42.7323C33.025 42.8885 33.2332 43.1552 33.4024 43.5326L38.5746 54.9506C38.7178 55.2499 38.7698 55.5231 38.7308 55.7703C38.6918 56.0176 38.5812 56.2127 38.399 56.3559C38.2168 56.486 37.9761 56.5511 37.6768 56.5511C37.3125 56.5511 37.0262 56.4665 36.818 56.2973C36.6229 56.1152 36.4472 55.8419 36.291 55.4776L35.0224 52.5304L36.0764 53.2135H27.8398L28.8937 52.5304L27.6446 55.4776C27.4754 55.8549 27.2998 56.1282 27.1176 56.2973C26.9354 56.4665 26.6752 56.5511 26.3369 56.5511ZM31.9385 45.3477L29.206 51.8472L28.6986 51.2227H35.2176L34.7296 51.8472L31.9776 45.3477H31.9385ZM44.8449 60.1033C44.1423 60.1033 43.4592 60.0383 42.7956 59.9081C42.145 59.778 41.5529 59.5763 41.0194 59.3031C40.7722 59.173 40.603 59.0168 40.512 58.8347C40.4339 58.6525 40.4079 58.4638 40.4339 58.2686C40.4729 58.0865 40.551 57.9238 40.6681 57.7807C40.7982 57.6376 40.9544 57.54 41.1365 57.4879C41.3187 57.4359 41.5074 57.4619 41.7026 57.566C42.2751 57.8522 42.8151 58.0344 43.3225 58.1125C43.843 58.2036 44.2854 58.2491 44.6498 58.2491C45.5216 58.2491 46.1722 58.0344 46.6016 57.605C47.044 57.1886 47.2652 56.5641 47.2652 55.7313V53.9747H47.4408C47.2457 54.6383 46.8358 55.1718 46.2112 55.5752C45.5996 55.9655 44.9035 56.1607 44.1228 56.1607C43.264 56.1607 42.5158 55.9655 41.8782 55.5752C41.2406 55.1718 40.7462 54.6123 40.3949 53.8966C40.0435 53.181 39.8679 52.3482 39.8679 51.3983C39.8679 50.6827 39.9655 50.0386 40.1606 49.466C40.3688 48.8805 40.6551 48.3795 41.0194 47.9632C41.3968 47.5468 41.8457 47.228 42.3662 47.0068C42.8997 46.7726 43.4852 46.6555 44.1228 46.6555C44.9295 46.6555 45.6322 46.8571 46.2307 47.2605C46.8423 47.6509 47.2391 48.1713 47.4213 48.8219L47.2261 49.3099V47.9241C47.2261 47.5207 47.3302 47.215 47.5384 47.0068C47.7596 46.7986 48.0589 46.6945 48.4362 46.6945C48.8266 46.6945 49.1259 46.7986 49.3341 47.0068C49.5423 47.215 49.6464 47.5207 49.6464 47.9241V55.4385C49.6464 56.987 49.2365 58.1515 48.4167 58.9322C47.597 59.713 46.4064 60.1033 44.8449 60.1033ZM44.7864 54.3065C45.2939 54.3065 45.7298 54.1894 46.0941 53.9552C46.4584 53.7209 46.7382 53.3891 46.9334 52.9597C47.1416 52.5173 47.2457 51.9969 47.2457 51.3983C47.2457 50.5005 47.0244 49.7978 46.582 49.2904C46.1396 48.7699 45.5411 48.5097 44.7864 48.5097C44.2789 48.5097 43.843 48.6268 43.4787 48.861C43.1144 49.0952 42.8281 49.427 42.6199 49.8564C42.4247 50.2858 42.3271 50.7998 42.3271 51.3983C42.3271 52.2961 42.5483 53.0053 42.9907 53.5258C43.4331 54.0462 44.0317 54.3065 44.7864 54.3065ZM56.8781 56.5901C55.7981 56.5901 54.8677 56.3884 54.087 55.985C53.3063 55.5817 52.7012 55.0091 52.2718 54.2675C51.8554 53.5258 51.6473 52.6475 51.6473 51.6325C51.6473 50.6436 51.8489 49.7783 52.2523 49.0366C52.6687 48.295 53.2347 47.7159 53.9504 47.2995C54.679 46.8701 55.5053 46.6555 56.4292 46.6555C57.1058 46.6555 57.7108 46.7661 58.2443 46.9873C58.7908 47.2085 59.2527 47.5273 59.6301 47.9436C60.0205 48.36 60.3132 48.8675 60.5084 49.466C60.7166 50.0516 60.8207 50.7152 60.8207 51.4569C60.8207 51.6911 60.7361 51.8733 60.567 52.0034C60.4108 52.1205 60.1831 52.179 59.8838 52.179H53.6186V50.7737H59.1031L58.7908 51.0665C58.7908 50.468 58.6997 49.967 58.5176 49.5636C58.3484 49.1603 58.0947 48.8545 57.7564 48.6463C57.4311 48.4251 57.0212 48.3145 56.5267 48.3145C55.9802 48.3145 55.5118 48.4446 55.1214 48.7048C54.7441 48.9521 54.4513 49.3099 54.2431 49.7783C54.048 50.2337 53.9504 50.7802 53.9504 51.4178V51.5545C53.9504 52.6214 54.1976 53.4217 54.6921 53.9552C55.1995 54.4756 55.9412 54.7359 56.9171 54.7359C57.2554 54.7359 57.6328 54.6968 58.0491 54.6188C58.4785 54.5277 58.8819 54.3781 59.2593 54.1699C59.5325 54.0137 59.7732 53.9487 59.9814 53.9747C60.1896 53.9877 60.3523 54.0593 60.4694 54.1894C60.5995 54.3195 60.6776 54.4821 60.7036 54.6773C60.7296 54.8595 60.6906 55.0482 60.5865 55.2433C60.4954 55.4385 60.3327 55.6077 60.0985 55.7508C59.6431 56.0371 59.1161 56.2518 58.5176 56.3949C57.932 56.525 57.3855 56.5901 56.8781 56.5901ZM63.9629 56.5511C63.5726 56.5511 63.2733 56.447 63.0651 56.2388C62.8569 56.0176 62.7528 55.7053 62.7528 55.3019V47.9241C62.7528 47.5207 62.8569 47.215 63.0651 47.0068C63.2733 46.7986 63.5661 46.6945 63.9434 46.6945C64.3208 46.6945 64.6135 46.7986 64.8217 47.0068C65.0299 47.215 65.134 47.5207 65.134 47.9241V49.2513L64.9193 48.7634C65.2056 48.0738 65.648 47.5533 66.2465 47.202C66.8581 46.8376 67.5477 46.6555 68.3154 46.6555C69.0831 46.6555 69.7142 46.7986 70.2087 47.0848C70.7031 47.3711 71.074 47.807 71.3212 48.3925C71.5684 48.9651 71.692 49.6937 71.692 50.5786V55.3019C71.692 55.7053 71.5879 56.0176 71.3797 56.2388C71.1716 56.447 70.8723 56.5511 70.4819 56.5511C70.0916 56.5511 69.7858 56.447 69.5646 56.2388C69.3564 56.0176 69.2523 55.7053 69.2523 55.3019V50.6957C69.2523 49.954 69.1092 49.414 68.8229 49.0757C68.5496 48.7374 68.1202 48.5682 67.5347 48.5682C66.8191 48.5682 66.2465 48.7959 65.8171 49.2513C65.4007 49.6937 65.1926 50.2858 65.1926 51.0275V55.3019C65.1926 56.1347 64.7827 56.5511 63.9629 56.5511ZM77.8394 56.5901C77.0067 56.5901 76.2715 56.3884 75.6339 55.985C75.0093 55.5817 74.5214 55.0091 74.17 54.2675C73.8187 53.5128 73.6431 52.6279 73.6431 51.613C73.6431 50.5851 73.8187 49.7068 74.17 48.9781C74.5214 48.2364 75.0093 47.6639 75.6339 47.2605C76.2715 46.8571 77.0067 46.6555 77.8394 46.6555C78.6332 46.6555 79.3228 46.8506 79.9083 47.241C80.5069 47.6313 80.9102 48.1453 81.1184 48.7829H80.9037V43.7082C80.9037 43.3049 81.0078 42.9991 81.216 42.7909C81.4242 42.5827 81.7235 42.4786 82.1139 42.4786C82.5042 42.4786 82.8035 42.5827 83.0117 42.7909C83.2329 42.9991 83.3435 43.3049 83.3435 43.7082V55.3019C83.3435 55.7053 83.2394 56.0176 83.0312 56.2388C82.823 56.447 82.5237 56.5511 82.1334 56.5511C81.743 56.5511 81.4437 56.447 81.2355 56.2388C81.0274 56.0176 80.9233 55.7053 80.9233 55.3019V53.7795L81.138 54.365C80.9428 55.0417 80.5459 55.5817 79.9474 55.985C79.3488 56.3884 78.6462 56.5901 77.8394 56.5901ZM78.5226 54.7359C79.004 54.7359 79.4269 54.6188 79.7912 54.3846C80.1556 54.1503 80.4353 53.8055 80.6305 53.3501C80.8387 52.8817 80.9428 52.3026 80.9428 51.613C80.9428 50.5721 80.7216 49.7978 80.2792 49.2904C79.8368 48.7699 79.2512 48.5097 78.5226 48.5097C78.0411 48.5097 77.6182 48.6268 77.2539 48.861C76.8895 49.0822 76.6033 49.427 76.3951 49.8954C76.1999 50.3509 76.1023 50.9234 76.1023 51.613C76.1023 52.641 76.3235 53.4217 76.7659 53.9552C77.2083 54.4756 77.7939 54.7359 78.5226 54.7359ZM90.577 56.5901C89.497 56.5901 88.5667 56.3884 87.786 55.985C87.0052 55.5817 86.4002 55.0091 85.9708 54.2675C85.5544 53.5258 85.3462 52.6475 85.3462 51.6325C85.3462 50.6436 85.5479 49.7783 85.9513 49.0366C86.3676 48.295 86.9337 47.7159 87.6493 47.2995C88.378 46.8701 89.2043 46.6555 90.1281 46.6555C90.8047 46.6555 91.4098 46.7661 91.9433 46.9873C92.4898 47.2085 92.9517 47.5273 93.329 47.9436C93.7194 48.36 94.0122 48.8675 94.2074 49.466C94.4155 50.0516 94.5196 50.7152 94.5196 51.4569C94.5196 51.6911 94.4351 51.8733 94.2659 52.0034C94.1098 52.1205 93.8821 52.179 93.5828 52.179H87.3175V50.7737H92.8021L92.4898 51.0665C92.4898 50.468 92.3987 49.967 92.2165 49.5636C92.0474 49.1603 91.7936 48.8545 91.4553 48.6463C91.13 48.4251 90.7202 48.3145 90.2257 48.3145C89.6792 48.3145 89.2108 48.4446 88.8204 48.7048C88.4431 48.9521 88.1503 49.3099 87.9421 49.7783C87.7469 50.2337 87.6493 50.7802 87.6493 51.4178V51.5545C87.6493 52.6214 87.8966 53.4217 88.391 53.9552C88.8985 54.4756 89.6402 54.7359 90.6161 54.7359C90.9544 54.7359 91.3317 54.6968 91.7481 54.6188C92.1775 54.5277 92.5809 54.3781 92.9582 54.1699C93.2315 54.0137 93.4722 53.9487 93.6804 53.9747C93.8886 53.9877 94.0512 54.0593 94.1683 54.1894C94.2984 54.3195 94.3765 54.4821 94.4025 54.6773C94.4286 54.8595 94.3895 55.0482 94.2854 55.2433C94.1943 55.4385 94.0317 55.6077 93.7975 55.7508C93.3421 56.0371 92.8151 56.2518 92.2165 56.3949C91.631 56.525 91.0845 56.5901 90.577 56.5901Z" fill="white"/>
<path d="M27.1762 76.069C26.7858 76.069 26.4865 75.9649 26.2783 75.7567C26.0702 75.5355 25.9661 75.2232 25.9661 74.8199V67.4421C25.9661 67.0387 26.0702 66.7329 26.2783 66.5247C26.4865 66.3165 26.7793 66.2124 27.1566 66.2124C27.534 66.2124 27.8268 66.3165 28.035 66.5247C28.2431 66.7329 28.3472 67.0387 28.3472 67.4421V68.7693L28.1325 68.2813C28.4188 67.5917 28.8612 67.0712 29.4598 66.7199C30.0713 66.3556 30.761 66.1734 31.5287 66.1734C32.2964 66.1734 32.9275 66.3165 33.4219 66.6028C33.9164 66.8891 34.2872 67.325 34.5344 67.9105C34.7817 68.483 34.9053 69.2117 34.9053 70.0965V74.8199C34.9053 75.2232 34.8012 75.5355 34.593 75.7567C34.3848 75.9649 34.0855 76.069 33.6952 76.069C33.3048 76.069 32.999 75.9649 32.7778 75.7567C32.5696 75.5355 32.4655 75.2232 32.4655 74.8199V70.2136C32.4655 69.4719 32.3224 68.9319 32.0361 68.5936C31.7629 68.2553 31.3335 68.0862 30.748 68.0862C30.0323 68.0862 29.4598 68.3139 29.0304 68.7693C28.614 69.2117 28.4058 69.8037 28.4058 70.5454V74.8199C28.4058 75.6526 27.9959 76.069 27.1762 76.069ZM41.7358 76.108C40.7469 76.108 39.8881 75.9064 39.1594 75.503C38.4308 75.0996 37.8647 74.5271 37.4614 73.7854C37.058 73.0307 36.8563 72.1459 36.8563 71.131C36.8563 70.3633 36.9669 69.6801 37.1881 69.0816C37.4223 68.47 37.7541 67.9495 38.1835 67.5201C38.6129 67.0777 39.1269 66.7459 39.7254 66.5247C40.324 66.2905 40.9941 66.1734 41.7358 66.1734C42.7247 66.1734 43.5835 66.3751 44.3122 66.7785C45.0408 67.1818 45.6069 67.7544 46.0102 68.496C46.4136 69.2377 46.6153 70.116 46.6153 71.131C46.6153 71.8987 46.4982 72.5883 46.264 73.1999C46.0428 73.8114 45.7175 74.3384 45.2881 74.7808C44.8587 75.2102 44.3447 75.542 43.7461 75.7762C43.1476 75.9974 42.4775 76.108 41.7358 76.108ZM41.7358 74.2538C42.2172 74.2538 42.6401 74.1367 43.0045 73.9025C43.3688 73.6683 43.6486 73.3235 43.8437 72.8681C44.0519 72.3996 44.156 71.8206 44.156 71.131C44.156 70.09 43.9348 69.3158 43.4924 68.8083C43.05 68.2878 42.4645 68.0276 41.7358 68.0276C41.2544 68.0276 40.8315 68.1447 40.4671 68.3789C40.1028 68.6001 39.8165 68.9449 39.6083 69.4134C39.4132 69.8688 39.3156 70.4413 39.3156 71.131C39.3156 72.1589 39.5368 72.9396 39.9792 73.4731C40.4216 73.9936 41.0071 74.2538 41.7358 74.2538ZM52.1227 76.108C51.5632 76.108 50.9711 76.0495 50.3466 75.9324C49.722 75.8153 49.1625 75.6136 48.668 75.3273C48.4598 75.1972 48.3102 75.0476 48.2191 74.8784C48.141 74.6962 48.1085 74.5206 48.1215 74.3514C48.1475 74.1693 48.2126 74.0131 48.3167 73.883C48.4338 73.7529 48.5769 73.6683 48.7461 73.6293C48.9283 73.5902 49.1234 73.6228 49.3316 73.7268C49.8521 73.9741 50.3401 74.1497 50.7955 74.2538C51.2509 74.3449 51.6998 74.3905 52.1422 74.3905C52.7668 74.3905 53.2287 74.2864 53.528 74.0782C53.8403 73.857 53.9964 73.5707 53.9964 73.2194C53.9964 72.9201 53.8923 72.6924 53.6841 72.5363C53.489 72.3671 53.1897 72.2435 52.7863 72.1654L50.8345 71.7946C50.0278 71.6384 49.4097 71.3457 48.9803 70.9163C48.5639 70.4739 48.3557 69.9078 48.3557 69.2182C48.3557 68.5936 48.5249 68.0536 48.8632 67.5982C49.2145 67.1428 49.696 66.7915 50.3075 66.5442C50.9191 66.297 51.6217 66.1734 52.4155 66.1734C52.988 66.1734 53.5215 66.2385 54.0159 66.3686C54.5234 66.4857 55.0114 66.6744 55.4798 66.9346C55.675 67.0387 55.8051 67.1753 55.8701 67.3445C55.9482 67.5136 55.9677 67.6893 55.9287 67.8715C55.8897 68.0406 55.8116 68.1968 55.6945 68.3399C55.5774 68.47 55.4277 68.5546 55.2456 68.5936C55.0764 68.6196 54.8812 68.5806 54.66 68.4765C54.2567 68.2683 53.8663 68.1187 53.489 68.0276C53.1246 67.9365 52.7733 67.891 52.435 67.891C51.7974 67.891 51.3225 68.0016 51.0102 68.2228C50.7109 68.444 50.5613 68.7368 50.5613 69.1011C50.5613 69.3743 50.6523 69.6021 50.8345 69.7842C51.0167 69.9664 51.2964 70.09 51.6738 70.1551L53.6256 70.5259C54.4714 70.682 55.1089 70.9683 55.5383 71.3847C55.9807 71.8011 56.2019 72.3606 56.2019 73.0632C56.2019 74.0131 55.8311 74.7613 55.0894 75.3078C54.3477 75.8413 53.3588 76.108 52.1227 76.108ZM64.7072 76.069C64.3168 76.069 64.0176 75.9649 63.8094 75.7567C63.6012 75.5355 63.4971 75.2232 63.4971 74.8199V67.4421C63.4971 67.0387 63.6012 66.7329 63.8094 66.5247C64.0176 66.3165 64.3103 66.2124 64.6877 66.2124C65.065 66.2124 65.3578 66.3165 65.566 66.5247C65.7742 66.7329 65.8783 67.0387 65.8783 67.4421V68.8669L65.6636 68.2813C65.9238 67.6307 66.3272 67.1168 66.8737 66.7394C67.4202 66.3621 68.0708 66.1734 68.8255 66.1734C69.5932 66.1734 70.2243 66.3556 70.7187 66.7199C71.2132 67.0842 71.558 67.6438 71.7532 68.3984H71.4799C71.7402 67.7088 72.1696 67.1688 72.7681 66.7785C73.3667 66.3751 74.0563 66.1734 74.837 66.1734C75.5657 66.1734 76.1642 66.3165 76.6327 66.6028C77.1141 66.8891 77.4719 67.325 77.7062 67.9105C77.9404 68.483 78.0575 69.2117 78.0575 70.0965V74.8199C78.0575 75.2232 77.9469 75.5355 77.7257 75.7567C77.5175 75.9649 77.2182 76.069 76.8278 76.069C76.4375 76.069 76.1382 75.9649 75.93 75.7567C75.7218 75.5355 75.6177 75.2232 75.6177 74.8199V70.1941C75.6177 69.4654 75.4941 68.9319 75.2469 68.5936C75.0127 68.2553 74.6093 68.0862 74.0368 68.0862C73.3992 68.0862 72.8982 68.3139 72.5339 68.7693C72.1696 69.2117 71.9874 69.8298 71.9874 70.6235V74.8199C71.9874 75.2232 71.8833 75.5355 71.6751 75.7567C71.4669 75.9649 71.1676 76.069 70.7773 76.069C70.3869 76.069 70.0811 75.9649 69.8599 75.7567C69.6517 75.5355 69.5477 75.2232 69.5477 74.8199V70.1941C69.5477 69.4654 69.424 68.9319 69.1768 68.5936C68.9426 68.2553 68.5457 68.0862 67.9862 68.0862C67.3486 68.0862 66.8477 68.3139 66.4833 68.7693C66.119 69.2117 65.9368 69.8298 65.9368 70.6235V74.8199C65.9368 75.6526 65.527 76.069 64.7072 76.069ZM85.2782 76.108C84.1982 76.108 83.2679 75.9064 82.4871 75.503C81.7064 75.0996 81.1014 74.5271 80.672 73.7854C80.2556 73.0437 80.0474 72.1654 80.0474 71.1505C80.0474 70.1616 80.2491 69.2963 80.6524 68.5546C81.0688 67.8129 81.6349 67.2339 82.3505 66.8175C83.0792 66.3881 83.9054 66.1734 84.8293 66.1734C85.5059 66.1734 86.111 66.284 86.6445 66.5052C87.191 66.7264 87.6529 67.0452 88.0302 67.4616C88.4206 67.878 88.7134 68.3854 88.9085 68.984C89.1167 69.5695 89.2208 70.2331 89.2208 70.9748C89.2208 71.209 89.1363 71.3912 88.9671 71.5213C88.811 71.6384 88.5832 71.697 88.284 71.697H82.0187V70.2917H87.5032L87.191 70.5845C87.191 69.9859 87.0999 69.4849 86.9177 69.0816C86.7486 68.6782 86.4948 68.3724 86.1565 68.1642C85.8312 67.943 85.4213 67.8324 84.9269 67.8324C84.3804 67.8324 83.9119 67.9625 83.5216 68.2228C83.1442 68.47 82.8515 68.8278 82.6433 69.2963C82.4481 69.7517 82.3505 70.2982 82.3505 70.9358V71.0724C82.3505 72.1394 82.5977 72.9396 83.0922 73.4731C83.5997 73.9936 84.3413 74.2538 85.3172 74.2538C85.6555 74.2538 86.0329 74.2148 86.4493 74.1367C86.8787 74.0456 87.282 73.896 87.6594 73.6878C87.9326 73.5317 88.1734 73.4666 88.3816 73.4926C88.5897 73.5056 88.7524 73.5772 88.8695 73.7073C88.9996 73.8374 89.0777 74.0001 89.1037 74.1953C89.1297 74.3774 89.0907 74.5661 88.9866 74.7613C88.8955 74.9565 88.7329 75.1256 88.4987 75.2688C88.0432 75.555 87.5163 75.7697 86.9177 75.9129C86.3322 76.043 85.7857 76.108 85.2782 76.108ZM94.4124 76.108C93.3325 76.108 92.5192 75.8023 91.9727 75.1907C91.4262 74.5661 91.153 73.6553 91.153 72.4582V63.2262C91.153 62.8228 91.257 62.517 91.4652 62.3088C91.6734 62.1007 91.9727 61.9966 92.3631 61.9966C92.7534 61.9966 93.0527 62.1007 93.2609 62.3088C93.4821 62.517 93.5927 62.8228 93.5927 63.2262V72.3411C93.5927 72.9396 93.7163 73.382 93.9635 73.6683C94.2238 73.9546 94.5881 74.0977 95.0565 74.0977C95.1606 74.0977 95.2582 74.0977 95.3493 74.0977C95.4404 74.0847 95.5315 74.0717 95.6226 74.0587C95.8047 74.0326 95.9283 74.0847 95.9934 74.2148C96.0585 74.3319 96.091 74.5791 96.091 74.9565C96.091 75.2818 96.0259 75.5355 95.8958 75.7177C95.7657 75.8998 95.551 76.0104 95.2517 76.0495C95.1216 76.0625 94.985 76.0755 94.8418 76.0885C94.6987 76.1015 94.5556 76.108 94.4124 76.108ZM98.5958 76.069C98.2055 76.069 97.9062 75.9649 97.698 75.7567C97.4898 75.5355 97.3857 75.2232 97.3857 74.8199V63.2262C97.3857 62.8228 97.4898 62.517 97.698 62.3088C97.9062 62.1007 98.2055 61.9966 98.5958 61.9966C98.9862 61.9966 99.2855 62.1007 99.4937 62.3088C99.7149 62.517 99.8255 62.8228 99.8255 63.2262V68.2813H99.5522C99.8385 67.5917 100.281 67.0712 100.879 66.7199C101.491 66.3556 102.181 66.1734 102.948 66.1734C103.716 66.1734 104.347 66.3165 104.842 66.6028C105.336 66.8891 105.707 67.325 105.954 67.9105C106.201 68.483 106.325 69.2117 106.325 70.0965V74.8199C106.325 75.2232 106.221 75.5355 106.013 75.7567C105.804 75.9649 105.505 76.069 105.115 76.069C104.724 76.069 104.419 75.9649 104.197 75.7567C103.989 75.5355 103.885 75.2232 103.885 74.8199V70.2136C103.885 69.4719 103.742 68.9319 103.456 68.5936C103.183 68.2553 102.753 68.0862 102.168 68.0862C101.452 68.0862 100.879 68.3139 100.45 68.7693C100.034 69.2117 99.8255 69.8037 99.8255 70.5454V74.8199C99.8255 75.6526 99.4156 76.069 98.5958 76.069ZM113.155 76.108C112.167 76.108 111.308 75.9064 110.579 75.503C109.85 75.0996 109.284 74.5271 108.881 73.7854C108.478 73.0307 108.276 72.1459 108.276 71.131C108.276 70.3633 108.387 69.6801 108.608 69.0816C108.842 68.47 109.174 67.9495 109.603 67.5201C110.033 67.0777 110.547 66.7459 111.145 66.5247C111.744 66.2905 112.414 66.1734 113.155 66.1734C114.144 66.1734 115.003 66.3751 115.732 66.7785C116.461 67.1818 117.027 67.7544 117.43 68.496C117.833 69.2377 118.035 70.116 118.035 71.131C118.035 71.8987 117.918 72.5883 117.684 73.1999C117.462 73.8114 117.137 74.3384 116.708 74.7808C116.278 75.2102 115.764 75.542 115.166 75.7762C114.567 75.9974 113.897 76.108 113.155 76.108ZM113.155 74.2538C113.637 74.2538 114.06 74.1367 114.424 73.9025C114.788 73.6683 115.068 73.3235 115.263 72.8681C115.472 72.3996 115.576 71.8206 115.576 71.131C115.576 70.09 115.354 69.3158 114.912 68.8083C114.47 68.2878 113.884 68.0276 113.155 68.0276C112.674 68.0276 112.251 68.1447 111.887 68.3789C111.522 68.6001 111.236 68.9449 111.028 69.4134C110.833 69.8688 110.735 70.4413 110.735 71.131C110.735 72.1589 110.956 72.9396 111.399 73.4731C111.841 73.9936 112.427 74.2538 113.155 74.2538ZM121.298 76.069C120.894 76.069 120.582 75.9649 120.361 75.7567C120.153 75.5355 120.049 75.2232 120.049 74.8199V67.4421C120.049 67.0387 120.153 66.7329 120.361 66.5247C120.569 66.3165 120.862 66.2124 121.239 66.2124C121.617 66.2124 121.909 66.3165 122.118 66.5247C122.326 66.7329 122.43 67.0387 122.43 67.4421V68.6717H122.235C122.417 67.891 122.775 67.2989 123.308 66.8956C123.842 66.4922 124.551 66.2515 125.436 66.1734C125.709 66.1474 125.924 66.2189 126.08 66.3881C126.249 66.5442 126.346 66.7915 126.372 67.1298C126.399 67.4551 126.32 67.7218 126.138 67.93C125.969 68.1252 125.709 68.2423 125.358 68.2813L124.928 68.3204C124.134 68.3984 123.536 68.6457 123.133 69.0621C122.729 69.4654 122.527 70.038 122.527 70.7796V74.8199C122.527 75.2232 122.423 75.5355 122.215 75.7567C122.007 75.9649 121.701 76.069 121.298 76.069ZM132.243 76.108C131.163 76.108 130.233 75.9064 129.452 75.503C128.671 75.0996 128.066 74.5271 127.637 73.7854C127.221 73.0437 127.012 72.1654 127.012 71.1505C127.012 70.1616 127.214 69.2963 127.618 68.5546C128.034 67.8129 128.6 67.2339 129.316 66.8175C130.044 66.3881 130.871 66.1734 131.794 66.1734C132.471 66.1734 133.076 66.284 133.61 66.5052C134.156 66.7264 134.618 67.0452 134.995 67.4616C135.386 67.878 135.678 68.3854 135.874 68.984C136.082 69.5695 136.186 70.2331 136.186 70.9748C136.186 71.209 136.101 71.3912 135.932 71.5213C135.776 71.6384 135.548 71.697 135.249 71.697H128.984V70.2917H134.468L134.156 70.5845C134.156 69.9859 134.065 69.4849 133.883 69.0816C133.714 68.6782 133.46 68.3724 133.122 68.1642C132.796 67.943 132.386 67.8324 131.892 67.8324C131.345 67.8324 130.877 67.9625 130.487 68.2228C130.109 68.47 129.817 68.8278 129.608 69.2963C129.413 69.7517 129.316 70.2982 129.316 70.9358V71.0724C129.316 72.1394 129.563 72.9396 130.057 73.4731C130.565 73.9936 131.306 74.2538 132.282 74.2538C132.621 74.2538 132.998 74.2148 133.414 74.1367C133.844 74.0456 134.247 73.896 134.624 73.6878C134.898 73.5317 135.138 73.4666 135.347 73.4926C135.555 73.5056 135.717 73.5772 135.835 73.7073C135.965 73.8374 136.043 74.0001 136.069 74.1953C136.095 74.3774 136.056 74.5661 135.952 74.7613C135.861 74.9565 135.698 75.1256 135.464 75.2688C135.008 75.555 134.481 75.7697 133.883 75.9129C133.297 76.043 132.751 76.108 132.243 76.108ZM141.612 76.108C141.052 76.108 140.46 76.0495 139.836 75.9324C139.211 75.8153 138.652 75.6136 138.157 75.3273C137.949 75.1972 137.799 75.0476 137.708 74.8784C137.63 74.6962 137.598 74.5206 137.611 74.3514C137.637 74.1693 137.702 74.0131 137.806 73.883C137.923 73.7529 138.066 73.6683 138.235 73.6293C138.417 73.5902 138.612 73.6228 138.821 73.7268C139.341 73.9741 139.829 74.1497 140.285 74.2538C140.74 74.3449 141.189 74.3905 141.631 74.3905C142.256 74.3905 142.718 74.2864 143.017 74.0782C143.329 73.857 143.485 73.5707 143.485 73.2194C143.485 72.9201 143.381 72.6924 143.173 72.5363C142.978 72.3671 142.679 72.2435 142.275 72.1654L140.324 71.7946C139.517 71.6384 138.899 71.3457 138.469 70.9163C138.053 70.4739 137.845 69.9078 137.845 69.2182C137.845 68.5936 138.014 68.0536 138.352 67.5982C138.704 67.1428 139.185 66.7915 139.797 66.5442C140.408 66.297 141.111 66.1734 141.904 66.1734C142.477 66.1734 143.011 66.2385 143.505 66.3686C144.012 66.4857 144.5 66.6744 144.969 66.9346C145.164 67.0387 145.294 67.1753 145.359 67.3445C145.437 67.5136 145.457 67.6893 145.418 67.8715C145.379 68.0406 145.301 68.1968 145.184 68.3399C145.066 68.47 144.917 68.5546 144.735 68.5936C144.565 68.6196 144.37 68.5806 144.149 68.4765C143.746 68.2683 143.355 68.1187 142.978 68.0276C142.614 67.9365 142.262 67.891 141.924 67.891C141.286 67.891 140.811 68.0016 140.499 68.2228C140.2 68.444 140.05 68.7368 140.05 69.1011C140.05 69.3743 140.141 69.6021 140.324 69.7842C140.506 69.9664 140.785 70.09 141.163 70.1551L143.115 70.5259C143.96 70.682 144.598 70.9683 145.027 71.3847C145.47 71.8011 145.691 72.3606 145.691 73.0632C145.691 74.0131 145.32 74.7613 144.578 75.3078C143.837 75.8413 142.848 76.108 141.612 76.108Z" fill="white"/>
<path d="M28.1503 92.9661C27.5624 92.9661 27.0573 92.8377 26.635 92.581C26.2127 92.3161 25.8856 91.9476 25.6538 91.4756C25.4302 90.9953 25.3184 90.4406 25.3184 89.8113C25.3184 89.331 25.3805 88.9046 25.5047 88.5319C25.6372 88.151 25.8235 87.8281 26.0636 87.5631C26.3121 87.2982 26.6101 87.0953 26.9579 86.9545C27.314 86.8055 27.7114 86.731 28.1503 86.731C28.4567 86.731 28.7713 86.7848 29.0942 86.8924C29.4172 86.9918 29.7111 87.1615 29.9761 87.4017C30.0341 87.4514 30.0713 87.5093 30.0879 87.5756C30.1045 87.6418 30.1003 87.708 30.0755 87.7743C30.0506 87.8323 30.0134 87.8819 29.9637 87.9233C29.914 87.9565 29.8519 87.9772 29.7774 87.9854C29.7111 87.9854 29.6408 87.9523 29.5662 87.8861C29.3344 87.6956 29.0984 87.5673 28.8583 87.501C28.6264 87.4265 28.3987 87.3893 28.1751 87.3893C27.8356 87.3893 27.5375 87.4431 27.2809 87.5507C27.0242 87.6584 26.8047 87.8157 26.6226 88.0227C26.4487 88.2297 26.3162 88.4864 26.2251 88.7928C26.134 89.0909 26.0885 89.4345 26.0885 89.8237C26.0885 90.602 26.2665 91.2148 26.6226 91.6619C26.9869 92.1008 27.5044 92.3202 28.1751 92.3202C28.3987 92.3202 28.6264 92.2871 28.8583 92.2208C29.0984 92.1463 29.3344 92.0138 29.5662 91.8234C29.6408 91.7571 29.7111 91.7282 29.7774 91.7364C29.8519 91.7364 29.914 91.7571 29.9637 91.7985C30.0134 91.8317 30.0465 91.8813 30.063 91.9476C30.0879 92.0055 30.092 92.0676 30.0755 92.1339C30.0589 92.2001 30.0216 92.2581 29.9637 92.3078C29.707 92.5479 29.4172 92.7177 29.0942 92.817C28.7713 92.9164 28.4567 92.9661 28.1503 92.9661ZM33.6677 92.9661C33.1047 92.9661 32.6161 92.8377 32.2021 92.581C31.7881 92.3243 31.4651 91.9641 31.2333 91.5004C31.0097 91.0367 30.8979 90.4861 30.8979 89.8485C30.8979 89.3765 30.96 88.9501 31.0842 88.5692C31.2167 88.1883 31.403 87.8612 31.6432 87.588C31.8916 87.3065 32.1855 87.0953 32.525 86.9545C32.8728 86.8055 33.2537 86.731 33.6677 86.731C34.2391 86.731 34.7317 86.8593 35.1458 87.116C35.5598 87.3727 35.8786 87.737 36.1021 88.209C36.334 88.6727 36.4499 89.2192 36.4499 89.8485C36.4499 90.3288 36.3837 90.7594 36.2512 91.1403C36.127 91.5211 35.9407 91.8482 35.6923 92.1215C35.4521 92.3947 35.1623 92.6059 34.8228 92.7549C34.4833 92.8957 34.0983 92.9661 33.6677 92.9661ZM33.6677 92.3326C34.0817 92.3326 34.4378 92.2374 34.7359 92.0469C35.0423 91.8482 35.2741 91.5625 35.4314 91.1899C35.597 90.8173 35.6798 90.3702 35.6798 89.8485C35.6798 89.0619 35.4977 88.4533 35.1333 88.0227C34.7773 87.5921 34.2887 87.3768 33.6677 87.3768C33.262 87.3768 32.9059 87.4762 32.5996 87.6749C32.3015 87.8654 32.0696 88.1469 31.904 88.5195C31.7467 88.8839 31.668 89.3269 31.668 89.8485C31.668 90.6434 31.8502 91.2562 32.2145 91.6868C32.5789 92.1173 33.0633 92.3326 33.6677 92.3326ZM38.4729 92.9412C38.3487 92.9412 38.2535 92.9081 38.1872 92.8419C38.121 92.7756 38.0879 92.6804 38.0879 92.5562V87.1533C38.0879 87.0208 38.121 86.9214 38.1872 86.8552C38.2535 86.7889 38.3487 86.7558 38.4729 86.7558C38.5888 86.7558 38.6758 86.7889 38.7337 86.8552C38.8 86.9214 38.8331 87.0208 38.8331 87.1533V88.3332L38.6965 88.2463C38.8455 87.7577 39.0981 87.3851 39.4541 87.1284C39.8102 86.8635 40.2366 86.731 40.7334 86.731C41.2634 86.731 41.6857 86.8593 42.0003 87.116C42.3233 87.3727 42.5344 87.7577 42.6338 88.2711H42.4475C42.5882 87.8074 42.8491 87.4348 43.23 87.1533C43.6191 86.8717 44.0746 86.731 44.5962 86.731C45.0434 86.731 45.4118 86.8179 45.7016 86.9918C45.9997 87.1657 46.2233 87.4265 46.3723 87.7743C46.5214 88.1138 46.5959 88.5444 46.5959 89.066V92.5562C46.5959 92.6804 46.5628 92.7756 46.4966 92.8419C46.4303 92.9081 46.3351 92.9412 46.2109 92.9412C46.095 92.9412 46.0039 92.9081 45.9376 92.8419C45.8714 92.7756 45.8383 92.6804 45.8383 92.5562V89.1281C45.8383 88.5237 45.7306 88.0848 45.5153 87.8116C45.3083 87.53 44.9564 87.3893 44.4596 87.3893C43.9296 87.3893 43.5073 87.5756 43.1927 87.9482C42.878 88.3125 42.7207 88.8093 42.7207 89.4386V92.5562C42.7207 92.6804 42.6876 92.7756 42.6214 92.8419C42.5551 92.9081 42.464 92.9412 42.3481 92.9412C42.2239 92.9412 42.1287 92.9081 42.0624 92.8419C41.9962 92.7756 41.9631 92.6804 41.9631 92.5562V89.1281C41.9631 88.5237 41.8554 88.0848 41.6401 87.8116C41.4331 87.53 41.0853 87.3893 40.5968 87.3893C40.0586 87.3893 39.6321 87.5756 39.3175 87.9482C39.0028 88.3125 38.8455 88.8093 38.8455 89.4386V92.5562C38.8455 92.8129 38.7213 92.9412 38.4729 92.9412ZM52.28 92.9412C52.1475 92.9412 52.044 92.904 51.9694 92.8294C51.8949 92.7549 51.8577 92.6514 51.8577 92.5189V84.545C51.8577 84.4042 51.8949 84.2965 51.9694 84.222C52.044 84.1475 52.1475 84.1102 52.28 84.1102H56.8631C56.9708 84.1102 57.0536 84.1392 57.1115 84.1972C57.1778 84.2551 57.2109 84.3338 57.2109 84.4332C57.2109 84.5491 57.1778 84.636 57.1115 84.694C57.0536 84.7437 56.9708 84.7685 56.8631 84.7685H52.6153V88.1096H56.6147C56.7224 88.1096 56.8052 88.1386 56.8631 88.1966C56.9294 88.2463 56.9625 88.3249 56.9625 88.4326C56.9625 88.5402 56.9294 88.623 56.8631 88.681C56.8052 88.739 56.7224 88.7679 56.6147 88.7679H52.6153V92.5189C52.6153 92.8005 52.5035 92.9412 52.28 92.9412ZM61.0188 92.9661C60.6213 92.9661 60.2363 92.9329 59.8636 92.8667C59.491 92.8005 59.1433 92.7011 58.8203 92.5686C58.5057 92.4278 58.22 92.2581 57.9633 92.0594C57.8805 92.0014 57.8225 91.9352 57.7894 91.8606C57.7646 91.7778 57.7604 91.7033 57.777 91.6371C57.8018 91.5625 57.8391 91.5004 57.8888 91.4508C57.9467 91.4011 58.013 91.3762 58.0875 91.3762C58.162 91.368 58.2407 91.3928 58.3235 91.4508C58.7044 91.7323 59.106 91.9393 59.5283 92.0718C59.9589 92.2043 60.4557 92.2705 61.0188 92.2705C61.8054 92.2705 62.3933 92.1173 62.7825 91.811C63.1799 91.5046 63.3786 91.103 63.3786 90.6062C63.3786 90.1922 63.2337 89.8692 62.9439 89.6374C62.6624 89.4055 62.1946 89.2234 61.5404 89.0909L60.2859 88.83C59.4993 88.6727 58.9155 88.4077 58.5346 88.0351C58.1538 87.6625 57.9633 87.1657 57.9633 86.5447C57.9633 86.1638 58.0378 85.8201 58.1869 85.5138C58.3359 85.1991 58.5471 84.93 58.8203 84.7064C59.0936 84.4829 59.4165 84.3131 59.7891 84.1972C60.17 84.073 60.5882 84.0109 61.0436 84.0109C61.5818 84.0109 62.0745 84.0854 62.5216 84.2344C62.9771 84.3835 63.3911 84.6195 63.7637 84.9424C63.8382 85.0004 63.8879 85.0708 63.9127 85.1536C63.9376 85.2281 63.9376 85.3026 63.9127 85.3771C63.8879 85.4434 63.8506 85.4972 63.8009 85.5386C63.7513 85.58 63.6892 85.6048 63.6146 85.6131C63.5401 85.6131 63.4615 85.58 63.3786 85.5138C63.0309 85.2322 62.6665 85.0294 62.2856 84.9052C61.913 84.7727 61.499 84.7064 61.0436 84.7064C60.5799 84.7064 60.1742 84.7809 59.8264 84.93C59.4869 85.079 59.2219 85.2902 59.0315 85.5634C58.841 85.8367 58.7458 86.1596 58.7458 86.5322C58.7458 86.9628 58.8783 87.3065 59.1433 87.5631C59.4082 87.8198 59.8347 88.0061 60.4226 88.1221L61.6895 88.3829C62.5258 88.5568 63.1468 88.8176 63.5525 89.1654C63.9583 89.5049 64.1611 89.9727 64.1611 90.5689C64.1611 90.925 64.0866 91.252 63.9376 91.5501C63.7968 91.8399 63.5898 92.0925 63.3165 92.3078C63.0433 92.5231 62.7121 92.6887 62.3229 92.8046C61.942 92.9122 61.5073 92.9661 61.0188 92.9661ZM68.3801 92.9412C68.2642 92.9412 68.169 92.9122 68.0945 92.8543C68.0282 92.788 67.9703 92.6928 67.9206 92.5686L65.1135 84.4953C65.0721 84.3628 65.0804 84.2551 65.1384 84.1723C65.2046 84.0813 65.3081 84.0357 65.4489 84.0357C65.5565 84.0357 65.6435 84.0606 65.7097 84.1102C65.776 84.1599 65.8298 84.2469 65.8712 84.3711L68.5913 92.3202H68.1938L70.9388 84.4083C70.9884 84.2841 71.0423 84.193 71.1002 84.1351C71.1665 84.0688 71.2576 84.0357 71.3735 84.0357C71.4811 84.0357 71.5639 84.0688 71.6219 84.1351C71.6881 84.193 71.742 84.2841 71.7834 84.4083L74.5159 92.3202H74.1433L76.8882 84.3711C76.9213 84.2551 76.971 84.1723 77.0372 84.1227C77.1118 84.0647 77.2028 84.0357 77.3105 84.0357C77.443 84.0357 77.5382 84.0771 77.5962 84.1599C77.6624 84.2427 77.6665 84.3545 77.6086 84.4953L74.8015 92.5686C74.7519 92.6928 74.6939 92.788 74.6277 92.8543C74.5614 92.9122 74.4662 92.9412 74.342 92.9412C74.2261 92.9412 74.1308 92.9122 74.0563 92.8543C73.9901 92.788 73.9321 92.6928 73.8824 92.5686L71.2369 84.9052H71.4853L68.8273 92.5686C68.7776 92.6928 68.7196 92.788 68.6534 92.8543C68.5954 92.9122 68.5043 92.9412 68.3801 92.9412ZM82.8582 92.8667C82.7257 92.8667 82.6222 92.8294 82.5477 92.7549C82.4732 92.6804 82.4359 92.5728 82.4359 92.432V84.545C82.4359 84.4042 82.4732 84.2965 82.5477 84.222C82.6222 84.1475 82.7257 84.1102 82.8582 84.1102H85.777C86.3815 84.1102 86.8907 84.2013 87.3047 84.3835C87.7187 84.5574 88.0375 84.8141 88.2611 85.1536C88.4847 85.4931 88.5965 85.9112 88.5965 86.408C88.5965 86.9545 88.4309 87.41 88.0996 87.7743C87.7767 88.1386 87.3379 88.3788 86.7831 88.4947V88.3208C87.4041 88.387 87.8926 88.6106 88.2487 88.9915C88.613 89.3641 88.7952 89.8609 88.7952 90.482C88.7952 91.2603 88.5468 91.8524 88.05 92.2581C87.5531 92.6638 86.8493 92.8667 85.9385 92.8667H82.8582ZM83.1811 92.2208H85.8764C86.5968 92.2208 87.135 92.0801 87.491 91.7985C87.8471 91.5087 88.0251 91.074 88.0251 90.4944C88.0251 89.8982 87.8471 89.4593 87.491 89.1778C87.135 88.8963 86.5968 88.7555 85.8764 88.7555H83.1811V92.2208ZM83.1811 88.1096H85.6901C86.3856 88.1096 86.9156 87.9689 87.2799 87.6873C87.6442 87.3975 87.8264 86.9794 87.8264 86.4329C87.8264 85.8864 87.6442 85.4724 87.2799 85.1908C86.9156 84.901 86.3856 84.7561 85.6901 84.7561H83.1811V88.1096ZM92.4828 92.9661C92.0771 92.9661 91.7128 92.8874 91.3898 92.7301C91.0752 92.5728 90.8226 92.3575 90.6322 92.0842C90.45 91.811 90.3589 91.5046 90.3589 91.1651C90.3589 90.718 90.4707 90.366 90.6943 90.1093C90.9178 89.8527 91.2946 89.6746 91.8245 89.5753C92.3545 89.4676 93.0831 89.4138 94.0105 89.4138H94.5446V89.9727H94.023C93.2777 89.9727 92.694 90.0058 92.2717 90.0721C91.8577 90.13 91.5678 90.2418 91.4022 90.4074C91.2366 90.573 91.1538 90.8049 91.1538 91.103C91.1538 91.4756 91.2822 91.7778 91.5389 92.0097C91.7956 92.2415 92.1433 92.3575 92.5822 92.3575C92.9382 92.3575 93.2488 92.2747 93.5137 92.1091C93.787 91.9352 94.0023 91.6992 94.1596 91.4011C94.3169 91.103 94.3956 90.7635 94.3956 90.3826V88.9667C94.3956 88.4119 94.2838 88.0103 94.0602 87.7619C93.8367 87.5052 93.4806 87.3768 92.9921 87.3768C92.6774 87.3768 92.371 87.4182 92.0729 87.501C91.7831 87.5838 91.4726 87.7163 91.1414 87.8985C91.0503 87.9482 90.9675 87.9647 90.893 87.9482C90.8268 87.9316 90.7729 87.8985 90.7315 87.8488C90.6984 87.7991 90.6736 87.7412 90.657 87.6749C90.6487 87.6004 90.6611 87.53 90.6943 87.4638C90.7274 87.3975 90.7854 87.3437 90.8682 87.3023C91.2159 87.1119 91.5678 86.9711 91.9239 86.88C92.2882 86.7807 92.6402 86.731 92.9796 86.731C93.4682 86.731 93.8698 86.8138 94.1844 86.9794C94.5074 87.145 94.7434 87.3934 94.8924 87.7246C95.0497 88.0558 95.1284 88.4823 95.1284 89.0039V92.5562C95.1284 92.6804 95.0994 92.7756 95.0415 92.8419C94.9835 92.9081 94.8965 92.9412 94.7806 92.9412C94.6647 92.9412 94.5736 92.9081 94.5074 92.8419C94.4411 92.7756 94.408 92.6804 94.408 92.5562V91.4135H94.5322C94.4577 91.7364 94.3252 92.0138 94.1348 92.2457C93.9443 92.4775 93.7083 92.6556 93.4268 92.7798C93.1453 92.904 92.8306 92.9661 92.4828 92.9661ZM97.494 92.9412C97.3698 92.9412 97.2746 92.9081 97.2083 92.8419C97.1421 92.7756 97.109 92.6804 97.109 92.5562V87.1533C97.109 87.0208 97.1421 86.9214 97.2083 86.8552C97.2746 86.7889 97.3698 86.7558 97.494 86.7558C97.6099 86.7558 97.6969 86.7889 97.7548 86.8552C97.8211 86.9214 97.8542 87.0208 97.8542 87.1533V88.2587H97.73C97.8791 87.7702 98.144 87.3934 98.5249 87.1284C98.9141 86.8635 99.3778 86.7268 99.916 86.7185C100.015 86.7103 100.098 86.731 100.164 86.7807C100.231 86.8303 100.264 86.909 100.264 87.0166C100.272 87.1326 100.247 87.2236 100.189 87.2899C100.131 87.3479 100.036 87.3851 99.9036 87.4017L99.7297 87.4141C99.1418 87.4721 98.6864 87.6666 98.3635 87.9979C98.0405 88.3291 97.8791 88.7762 97.8791 89.3393V92.5562C97.8791 92.6804 97.8459 92.7756 97.7797 92.8419C97.7217 92.9081 97.6265 92.9412 97.494 92.9412ZM104.223 92.9661C103.66 92.9661 103.18 92.8212 102.783 92.5313C102.385 92.2415 102.116 91.8524 101.975 91.3638L102.112 91.2893V92.5562C102.112 92.6804 102.079 92.7756 102.013 92.8419C101.946 92.9081 101.855 92.9412 101.739 92.9412C101.615 92.9412 101.52 92.9081 101.454 92.8419C101.387 92.7756 101.354 92.6804 101.354 92.5562V84.4208C101.354 84.2883 101.387 84.193 101.454 84.1351C101.52 84.0688 101.615 84.0357 101.739 84.0357C101.855 84.0357 101.946 84.0688 102.013 84.1351C102.079 84.193 102.112 84.2883 102.112 84.4208V88.3332H101.975C102.116 87.8447 102.385 87.4555 102.783 87.1657C103.18 86.8759 103.66 86.731 104.223 86.731C104.77 86.731 105.242 86.8593 105.639 87.116C106.037 87.3727 106.343 87.7329 106.558 88.1966C106.782 88.6603 106.894 89.2109 106.894 89.8485C106.894 90.4861 106.782 91.0409 106.558 91.5129C106.343 91.9766 106.033 92.3368 105.627 92.5935C105.229 92.8419 104.762 92.9661 104.223 92.9661ZM104.112 92.3326C104.517 92.3326 104.869 92.2374 105.167 92.0469C105.474 91.8482 105.71 91.5625 105.875 91.1899C106.041 90.8173 106.124 90.3702 106.124 89.8485C106.124 89.0619 105.942 88.4533 105.577 88.0227C105.213 87.5921 104.724 87.3768 104.112 87.3768C103.706 87.3768 103.35 87.4762 103.043 87.6749C102.745 87.8654 102.514 88.1469 102.348 88.5195C102.182 88.8839 102.1 89.3269 102.1 89.8485C102.1 90.6434 102.282 91.2562 102.646 91.6868C103.01 92.1173 103.499 92.3326 104.112 92.3326ZM111.119 92.9661C110.498 92.9661 109.964 92.8419 109.517 92.5935C109.07 92.345 108.726 91.989 108.486 91.5253C108.246 91.0616 108.126 90.5109 108.126 89.8734C108.126 89.2441 108.246 88.6976 108.486 88.2339C108.726 87.7619 109.057 87.3934 109.48 87.1284C109.91 86.8635 110.403 86.731 110.958 86.731C111.363 86.731 111.72 86.8014 112.026 86.9421C112.341 87.0746 112.606 87.2692 112.821 87.5259C113.044 87.7743 113.214 88.0807 113.33 88.445C113.446 88.8011 113.504 89.2068 113.504 89.6622C113.504 89.7781 113.471 89.8651 113.405 89.923C113.347 89.981 113.264 90.01 113.156 90.01H108.672V89.4511H113.032L112.833 89.6125C112.833 89.1323 112.763 88.7265 112.622 88.3953C112.481 88.0558 112.27 87.795 111.989 87.6128C111.715 87.4307 111.376 87.3396 110.97 87.3396C110.515 87.3396 110.13 87.4472 109.815 87.6625C109.5 87.8695 109.264 88.1593 109.107 88.5319C108.95 88.8963 108.871 89.3186 108.871 89.7988V89.8609C108.871 90.6559 109.066 91.2686 109.455 91.6992C109.844 92.1215 110.391 92.3326 111.094 92.3326C111.401 92.3326 111.695 92.2912 111.976 92.2084C112.266 92.1256 112.548 91.9848 112.821 91.7861C112.904 91.7282 112.982 91.6992 113.057 91.6992C113.14 91.6992 113.206 91.7199 113.256 91.7613C113.314 91.8027 113.351 91.8565 113.367 91.9227C113.392 91.9807 113.388 92.0469 113.355 92.1215C113.33 92.1877 113.276 92.2498 113.193 92.3078C112.928 92.5231 112.61 92.6887 112.237 92.8046C111.864 92.9122 111.492 92.9661 111.119 92.9661ZM115.433 92.9412C115.309 92.9412 115.214 92.9081 115.148 92.8419C115.081 92.7756 115.048 92.6804 115.048 92.5562V87.1533C115.048 87.0208 115.081 86.9214 115.148 86.8552C115.214 86.7889 115.309 86.7558 115.433 86.7558C115.549 86.7558 115.636 86.7889 115.694 86.8552C115.76 86.9214 115.794 87.0208 115.794 87.1533V88.2587H115.669C115.818 87.7702 116.083 87.3934 116.464 87.1284C116.853 86.8635 117.317 86.7268 117.855 86.7185C117.955 86.7103 118.038 86.731 118.104 86.7807C118.17 86.8303 118.203 86.909 118.203 87.0166C118.211 87.1326 118.187 87.2236 118.129 87.2899C118.071 87.3479 117.975 87.3851 117.843 87.4017L117.669 87.4141C117.081 87.4721 116.626 87.6666 116.303 87.9979C115.98 88.3291 115.818 88.7762 115.818 89.3393V92.5562C115.818 92.6804 115.785 92.7756 115.719 92.8419C115.661 92.9081 115.566 92.9412 115.433 92.9412Z" fill="white"/>
</g>
<defs>
<clipPath id="clip0_13365_218">
<rect x="0.74353" y="0.0205536" width="310.513" height="133.077" rx="8.87179" fill="white"/>
</clipPath>
</defs>
</svg>
