<svg width="15" height="15" viewBox="0 0 15 15" fill="none" xmlns="http://www.w3.org/2000/svg">
<g clip-path="url(#clip0_6858_208)">
<path d="M12.9454 6.93692C11.655 6.93692 11.0098 5.00125 9.07412 5.00125C7.13845 5.00125 7.13845 6.29169 7.13845 6.29169C7.13845 6.29169 7.13845 5.00125 5.20279 5.00125C3.26712 5.00125 2.6219 6.93692 1.33146 6.93692C0.686237 6.93692 0.0410156 6.29169 0.0410156 6.29169C0.0410156 6.29169 0.686237 9.5178 3.26712 9.5178C6.49323 9.5178 7.13845 7.58214 7.13845 7.58214C7.13845 7.58214 7.78367 9.5178 11.0098 9.5178C13.5907 9.5178 14.2359 6.29169 14.2359 6.29169C14.2359 6.29169 13.5907 6.93692 12.9454 6.93692Z" fill="white"/>
</g>
<defs>
<clipPath id="clip0_6858_208">
<rect width="14.1949" height="14.1949" fill="white" transform="translate(0.0410156 0.484665)"/>
</clipPath>
</defs>
</svg>
