<svg width="16" height="16" viewBox="0 0 16 16" fill="none" xmlns="http://www.w3.org/2000/svg">
<g clip-path="url(#clip0_1629_6081)">
<path d="M14.7694 1.84615V9.84615C14.7696 9.93052 14.7524 10.014 14.719 10.0915C14.6856 10.1689 14.6365 10.2387 14.575 10.2964C14.5135 10.3541 14.4407 10.3985 14.3613 10.4269C14.2819 10.4553 14.1974 10.4671 14.1133 10.4615C13.955 10.4479 13.8078 10.3749 13.7012 10.2572C13.5946 10.1395 13.5365 9.98574 13.5386 9.82692V1.84615C13.5388 1.76165 13.5216 1.67802 13.4881 1.60046C13.4546 1.5229 13.4054 1.45308 13.3437 1.39534C13.282 1.33761 13.2091 1.2932 13.1295 1.26489C13.0499 1.23657 12.9653 1.22496 12.881 1.23077C12.7227 1.24511 12.5757 1.3187 12.4695 1.43681C12.3632 1.55492 12.3055 1.70883 12.3079 1.86769V12C12.3079 12.0816 12.2755 12.1599 12.2178 12.2176C12.1601 12.2753 12.0818 12.3077 12.0002 12.3077H1.53865C1.45704 12.3077 1.37878 12.2753 1.32108 12.2176C1.26337 12.1599 1.23096 12.0816 1.23096 12V1.84615C1.23096 1.35652 1.42546 0.886947 1.77168 0.540726C2.1179 0.194505 2.58748 0 3.07711 0H12.9233C13.4129 0 13.8825 0.194505 14.2287 0.540726C14.5749 0.886947 14.7694 1.35652 14.7694 1.84615ZM12.0002 13.5385H1.53865C1.45704 13.5385 1.37878 13.5709 1.32108 13.6286C1.26337 13.6863 1.23096 13.7645 1.23096 13.8462V14.7692C1.23096 15.0957 1.36063 15.4087 1.59144 15.6395C1.82225 15.8703 2.13531 16 2.46173 16H11.0771C11.4035 16 11.7166 15.8703 11.9474 15.6395C12.1782 15.4087 12.3079 15.0957 12.3079 14.7692V13.8462C12.3079 13.7645 12.2755 13.6863 12.2178 13.6286C12.1601 13.5709 12.0818 13.5385 12.0002 13.5385Z" fill="white"/>
</g>
<defs>
<clipPath id="clip0_1629_6081">
<rect width="16" height="16" fill="white"/>
</clipPath>
</defs>
</svg>
